<?xml version="1.0" encoding="UTF-8" standalone="no"?>
<svg
   xmlns:dc="http://purl.org/dc/elements/1.1/"
   xmlns:cc="http://creativecommons.org/ns#"
   xmlns:rdf="http://www.w3.org/1999/02/22-rdf-syntax-ns#"
   xmlns:svg="http://www.w3.org/2000/svg"
   xmlns="http://www.w3.org/2000/svg"
   xmlns:sodipodi="http://sodipodi.sourceforge.net/DTD/sodipodi-0.dtd"
   xmlns:inkscape="http://www.inkscape.org/namespaces/inkscape"
   inkscape:version="1.0 (4035a4f, 2020-05-01)"
   sodipodi:docname="undraw_virtual_conference.svg"
   id="svg3916"
   version="1.1"
   viewBox="0 0 650 500.00002"
   height="500"
   width="650"
   data-name="Layer 1">
  <metadata
     id="metadata3922">
    <rdf:RDF>
      <cc:Work
         rdf:about="">
        <dc:format>image/svg+xml</dc:format>
        <dc:type
           rdf:resource="http://purl.org/dc/dcmitype/StillImage" />
        <dc:title></dc:title>
      </cc:Work>
    </rdf:RDF>
  </metadata>
  <defs
     id="defs3920" />
  <sodipodi:namedview
     inkscape:current-layer="svg3916"
     inkscape:window-maximized="0"
     inkscape:window-y="189"
     inkscape:window-x="2048"
     inkscape:cy="360.66766"
     inkscape:cx="363.745"
     inkscape:zoom="1.0189436"
     showgrid="false"
     id="namedview3918"
     inkscape:window-height="1132"
     inkscape:window-width="1422"
     inkscape:pageshadow="2"
     inkscape:pageopacity="0"
     guidetolerance="10"
     gridtolerance="10"
     objecttolerance="10"
     borderopacity="1"
     bordercolor="#666666"
     pagecolor="#ffffff" />
  <g
     transform="matrix(1.1139589,0,0,1.1805233,-73.579008,-134.47666)"
     id="g4535">
    <path
       d="m 283.4007,570.49317 c 0.009,0.0257 0.0171,0.0429 0.0257,0.0686 0.06,0.17993 0.11995,0.3427 0.1885,0.52257 v 0.009 q 4.382,12.31073 9.62925,24.21021 l 660.71743,-0.71965 q 5.3201,-12.1436 9.76629,-24.73278 a 0.15842,0.15842 0 0 0 0.0172,-0.0599 z"
       transform="translate(-236.255,-89.33232)"
       fill="#cccccc"
       id="path3828" />
    <path
       d="m 531.50311,445.48861 a 15.43646,15.43646 0 0 1 -21.19426,10.53923 l -37.23946,40.27916 -6.82031,-27.67819 36.40881,-34.00651 a 15.52015,15.52015 0 0 1 28.84511,10.86627 z"
       transform="translate(-236.255,-89.33232)"
       fill="#ffb6b6"
       id="path3830" />
    <path
       d="m 489.13229,481.19226 -50.5964,56.7903 -0.4112,-0.0771 c -0.17135,-0.0257 -4.00933,-0.711 -10.09189,-1.82476 -21.99992,-4.02643 -73.31592,-13.63 -86.04645,-18.07625 a 45.49735,45.49735 0 0 1 -19.13854,-12.5163 c 1.31929,-7.18768 2.73286,-12.56775 4.12928,-15.18924 1.01947,-1.91041 0.831,-4.40337 0.87379,-7.2476 a 22.91445,22.91445 0 0 1 11.28271,-3.99223 163.87217,163.87217 0 0 1 74.18119,11.89951 l 13.34733,5.51711 0.54829,-0.40262 45.07929,-33.08555 0.3084,-0.22275 15.50615,17.27952 z"
       transform="translate(-236.255,-89.33232)"
       fill="#000000"
       id="path3832" />
    <path
       d="m 930.18571,530.34512 c -0.74377,4.25274 -9.10589,7.24239 -19.16071,6.72274 -9.24607,-0.426 -16.80618,-3.67268 -18.19124,-7.52051 a 5.16176,5.16176 0 0 1 1.58005,-0.21063 l 34.91076,0.90149 a 5.01447,5.01447 0 0 1 0.86114,0.10691 z"
       transform="translate(-236.255,-89.33232)"
       fill="#ffffff"
       id="path3846" />
    <path
       d="m 711.619,485.40612 v 87.86264 h 61.5535 v -87.86264 a 2.9539,2.9539 0 0 0 -2.08176,-2.82708 2.71964,2.71964 0 0 0 -0.88237,-0.13705 h -55.61668 a 2.967,2.967 0 0 0 -2.97269,2.96413 z m 24.02169,30.18988 a 6.57114,6.57114 0 0 1 13.14173,0 v 10.1947 a 6.57094,6.57094 0 0 1 -13.14173,0 z"
       transform="translate(-236.255,-89.33232)"
       fill="#cccccc"
       id="path3848" />
    <path
       d="m 711.43054,570.45883 v 8.47272 a 1.66732,1.66732 0 0 0 1.65341,1.662 h 58.62363 a 1.66174,1.66174 0 0 0 1.65342,-1.662 v -8.47272 z"
       transform="translate(-236.255,-89.33232)"
       fill="#3f3d56"
       id="path3850" />
    <path
       d="m 614.78672,353.02965 v 160.42466 a 7.71637,7.71637 0 0 0 7.71026,7.71025 h 237.73286 a 7.71633,7.71633 0 0 0 7.71026,-7.71025 V 353.02965 a 7.72008,7.72008 0 0 0 -7.71026,-7.70173 H 622.497 a 7.72012,7.72012 0 0 0 -7.71028,7.70173 z"
       transform="translate(-236.255,-89.33232)"
       fill="#cccccc"
       id="path3852" />
    <path
       d="m 620.36382,355.02571 v 156.44963 a 4.12784,4.12784 0 0 0 4.1207,4.1207 h 233.76636 a 4.12781,4.12781 0 0 0 4.1207,-4.1207 V 355.02571 a 4.12967,4.12967 0 0 0 -4.1207,-4.12928 H 624.48452 a 4.1297,4.1297 0 0 0 -4.1207,4.12928 z"
       transform="translate(-236.255,-89.33232)"
       fill="#ffffff"
       id="path3854" />
    <path
       d="m 668.74686,580.01952 a 2.5259,2.5259 0 0 0 1.98754,0.95092 h 139.07589 a 2.55916,2.55916 0 0 0 2.50154,-3.08408 l -2.15889,-10.25462 a 2.56379,2.56379 0 0 0 -1.59344,-1.85906 2.4797,2.4797 0 0 0 -0.9081,-0.1713 H 672.88472 a 2.47947,2.47947 0 0 0 -0.9081,0.1713 2.56354,2.56354 0 0 0 -1.59344,1.85906 l -2.15889,10.25462 a 2.55719,2.55719 0 0 0 0.52257,2.13316 z"
       transform="translate(-236.255,-89.33232)"
       fill="#f2f2f2"
       id="path3856" />
    <path
       d="M 850.66442,372.44808 H 631.93018 a 0.87005,0.87005 0 0 1 0,-1.73968 h 218.73424 a 0.87005,0.87005 0 0 1 0,1.73968 z"
       transform="translate(-236.255,-89.33232)"
       fill="#3f3d56"
       id="path3858" />
    <ellipse
       cx="410.5647"
       cy="271.72351"
       rx="5.0977001"
       ry="5.2113099"
       fill="#3f3d56"
       id="ellipse3860" />
    <ellipse
       cx="428.17493"
       cy="271.72351"
       rx="5.0977001"
       ry="5.2113099"
       fill="#3f3d56"
       id="ellipse3862" />
    <ellipse
       cx="445.78516"
       cy="271.72351"
       rx="5.0977001"
       ry="5.2113099"
       fill="#3f3d56"
       id="ellipse3864" />
    <path
       d="m 840.06013,357.1332 h -12.50772 a 0.9469,0.9469 0 0 0 0,1.89331 h 12.50772 a 0.94674,0.94674 0 0 0 0,-1.89331 z"
       transform="translate(-236.255,-89.33232)"
       fill="#3f3d56"
       id="path3866" />
    <path
       d="m 840.06013,360.6885 h -12.50772 a 0.94688,0.94688 0 0 0 0,1.89326 h 12.50772 a 0.94672,0.94672 0 0 0 0,-1.89326 z"
       transform="translate(-236.255,-89.33232)"
       fill="#3f3d56"
       id="path3868" />
    <path
       d="m 840.06013,364.24376 h -12.50772 a 0.9469,0.9469 0 0 0 0,1.89331 h 12.50772 a 0.94674,0.94674 0 0 0 0,-1.89331 z"
       transform="translate(-236.255,-89.33232)"
       fill="#3f3d56"
       id="path3870" />
    <rect
       ry="2.7650197"
       x="490.5228"
       y="330.40497"
       width="43.450851"
       height="9.2914495"
       rx="2.9302428"
       fill="#000000"
       id="rect3872"
       style="fill:#311c87;fill-opacity:1" />
    <rect
       ry="2.7650197"
       x="468.4556"
       y="348.98788"
       width="87.585258"
       height="9.2914495"
       rx="2.9302428"
       fill="#000000"
       id="rect3874"
       style="fill:#311c87;fill-opacity:1" />
    <rect
       ry="2.7650197"
       x="468.4556"
       y="367.5708"
       width="87.585258"
       height="9.2914495"
       rx="2.9302428"
       fill="#000000"
       id="rect3876"
       style="fill:#311c87;fill-opacity:1" />
    <ellipse
       cx="361.36914"
       cy="490.68826"
       rx="20.13233"
       ry="6.42521"
       fill="#3f3d56"
       id="ellipse3878" />
    <ellipse
       cx="361.36914"
       cy="486.40479"
       rx="20.13233"
       ry="6.42521"
       fill="#3f3d56"
       id="ellipse3880" />
    <path
       d="m 599.12416,580.04286 -3,-0.0449 0.82764,-56.01856 a 52.25793,52.25793 0 0 0 -25.36914,-45.5 l -57.25928,-34.22607 1.53906,-2.5752 57.25928,34.22705 a 55.26514,55.26514 0 0 1 26.83008,48.11914 z"
       transform="translate(-236.255,-89.33232)"
       fill="#3f3d56"
       id="path3882" />
    <rect
       ry="6.1683664"
       x="272.27286"
       y="320.20596"
       width="14.56381"
       height="59.968651"
       rx="6.5369558"
       fill="#000000"
       id="rect3884" />
    <path
       d="m 510.71352,482.01747 a 21.89,21.89 0 0 1 -21.85743,-21.61524 l -0.24707,-23.00537 3,-0.0322 0.24707,23.00634 a 18.82625,18.82625 0 0 0 30.47608,14.585 l 20.41553,-16.083 1.85644,2.35742 -20.41553,16.083 a 21.73337,21.73337 0 0 1 -13.47509,4.70407 z"
       transform="translate(-236.255,-89.33232)"
       fill="#3f3d56"
       id="path3886" />
    <ellipse
       cx="256.85236"
       cy="345.05011"
       rx="8.9953003"
       ry="21.84572"
       fill="#3f3d56"
       id="ellipse3888" />
    <path
       d="m 429.67769,551.9724 c -0.77962,-4.90032 -1.30219,-10.27182 -1.64489,-15.89173 -0.8053,-12.859 -0.72817,-27.03729 -0.8224,-40.00762 -0.0397,-5.89449 -0.50638,-12.33124 -1.11342,-18.30729 a 34.49091,34.49091 0 0 0 -16.98798,-26.47759 34.91683,34.91683 0 0 1 -8.59328,-7.00234 c -1.33644,-1.49064 -1.49922,-4.93457 -1.67057,-8.57553 -0.2056,-4.42909 -0.41977,-9.021 -2.79278,-11.38545 l -0.1028,-0.1028 -0.1371,-0.0515 c -9.96337,-3.31541 -26.79739,-1.1651 -31.80051,-0.009 l -0.21418,0.0514 -0.137,0.1713 c -2.06466,2.73286 -1.95329,7.102 -1.84191,11.32553 0.0942,3.79516 0.18845,7.38471 -1.49064,8.46416 -1.3022,0.83954 -2.55294,1.63626 -3.76091,2.40731 -14.81223,9.44931 -22.24834,14.19544 -27.697,29.62452 a 20.41133,20.41133 0 0 0 -1.01947,6.845 c -0.0428,2.84423 0.14568,5.33719 -0.87379,7.2476 -1.39642,2.62149 -2.81,8.00156 -4.12928,15.18924 -6.91353,37.77166 -11.01708,125.6 5.87692,127.65613 1.31929,0.16278 -1.37069,2.80993 -2.29594,4.1378 -1.32787,1.91047 -2.46728,3.55531 -1.80761,4.81462 0.44544,0.8567 1.61059,1.25937 3.64953,1.25937 7.6931,0 86.77461,-11.60821 89.01915,-15.78888 0.14568,-0.27415 0.16277,0.23985 0,0 37.07776,-4.84036 17.4509,-43.56298 12.38786,-75.59477 z"
       transform="translate(-236.255,-89.33232)"
       fill="#000000"
       id="path3890" />
    <path
       d="m 518.9264,589.80122 a 15.64019,15.64019 0 0 0 -23.9241,1.67224 l -53.20577,-16.07146 8.24906,27.67927 49.26041,11.01828 a 15.725,15.725 0 0 0 19.62031,-24.29824 z"
       transform="translate(-236.255,-89.33232)"
       fill="#ffb6b6"
       id="path3892" />
    <path
       d="m 454.69859,605.6509 -73.05952,-13.40884 c -0.2959,-0.7643 -29.6264,-76.68827 -33.25039,-93.74317 a 46.16377,46.16377 0 0 1 3.66143,-30.48544 l 0.12872,-0.2265 0.23965,-0.10339 a 23.42664,23.42664 0 0 1 28.21808,7.88882 165.93665,165.93665 0 0 1 28.64761,70.52384 l 2.2331,14.45659 34.81551,10.11966 z"
       transform="translate(-236.255,-89.33232)"
       fill="#000000"
       id="path3894" />
    <path
       d="m 430.76184,400.48473 a 41.39522,41.39522 0 1 1 2.10341,-35.26571 c 0.18945,0.47375 0.36005,0.9475 0.53054,1.44021 a 41.33879,41.33879 0 0 1 -2.63395,33.8255 z"
       transform="translate(-236.255,-89.33232)"
       fill="#ffb6b6"
       id="path3896" />
    <path
       d="m 407.76941,326.81186 v 0 a 6.42521,6.42521 0 0 1 6.42521,6.42521 v 47.78668 a 6.4252,6.4252 0 0 1 -6.4252,6.4252 v 0 a 6.42521,6.42521 0 0 1 -6.42521,-6.42521 v -47.78667 a 6.4252,6.4252 0 0 1 6.4252,-6.4252 z"
       transform="rotate(18.45374,564.60195,-414.71614)"
       fill="#ffffff"
       id="path3906" />
    <circle
       cx="160.55577"
       cy="299.30341"
       r="17.1339"
       fill="#ffffff"
       id="circle3908" />
    <circle
       cx="160.55577"
       cy="299.30341"
       r="4.2834702"
       fill="#000000"
       id="circle3910" />
  </g>
</svg>
